<svg xmlns="http://www.w3.org/2000/svg" xmlns:xlink="http://www.w3.org/1999/xlink" width="1920" zoomAndPan="magnify" viewBox="0 0 1440 809.999993" height="1080" preserveAspectRatio="xMidYMid meet" version="1.0"><defs><clipPath id="a32dad21ce"><path d="M 402 350 L 1039.5 350 L 1039.5 461 L 402 461 Z M 402 350 " clip-rule="nonzero"/></clipPath></defs><g clip-path="url(#a32dad21ce)"><path fill="#2D69C4" d="M 715.378906 355.507812 C 697.265625 364.535156 689.421875 379.726562 689.421875 405.789062 C 689.421875 423.816406 692.425781 434.191406 700.46875 443.949219 C 709.964844 455.46875 721.660156 460.707031 738.089844 460.800781 C 756.996094 460.90625 769.894531 453.195312 778.589844 436.59375 L 784.644531 425.027344 L 773.410156 423.945312 C 764.953125 423.132812 761.652344 423.632812 760.066406 425.972656 C 758.90625 427.683594 755.421875 431.726562 752.320312 434.960938 C 746.117188 441.4375 736.042969 442.777344 726.457031 438.410156 C 715.113281 433.242188 709.382812 409.355469 714.800781 389.84375 C 720.46875 369.429688 746.207031 364.71875 756.808594 382.15625 C 760.71875 388.582031 761.53125 388.910156 772.101562 388.351562 C 778.238281 388.027344 783.511719 387.515625 783.816406 387.210938 C 784.988281 386.058594 778.15625 372.035156 773.605469 366.246094 C 770.980469 362.910156 764.015625 357.9375 758.125 355.195312 C 743.628906 348.445312 729.34375 348.550781 715.378906 355.507812 M 402.632812 404.996094 L 402.632812 457.714844 L 425.828125 457.714844 L 425.828125 421.867188 L 451.132812 421.867188 L 451.132812 400.777344 L 425.828125 400.777344 L 425.828125 375.472656 L 482.765625 375.472656 L 482.765625 352.277344 L 402.632812 352.277344 Z M 497.527344 404.59375 L 497.527344 457.308594 L 508.246094 458.035156 C 514.144531 458.441406 519.363281 458.371094 519.847656 457.890625 C 520.328125 457.40625 520.722656 448.574219 520.722656 438.261719 L 520.722656 419.515625 L 529.464844 420.164062 L 538.210938 420.8125 L 545.910156 438.734375 L 553.613281 456.660156 L 565.636719 457.738281 C 573.054688 458.40625 577.65625 458 577.65625 456.683594 C 577.652344 455.511719 573.582031 446.25 568.609375 436.097656 C 561.007812 420.582031 560.105469 417.480469 562.945312 416.578125 C 564.800781 415.992188 569.480469 412.246094 573.339844 408.261719 C 587.101562 394.0625 583.789062 370.445312 566.417969 358.941406 C 558.40625 353.636719 556.3125 353.292969 527.738281 352.605469 L 497.527344 351.878906 Z M 624.050781 352.804688 C 624.046875 353.09375 615.632812 376.816406 605.347656 405.523438 L 586.652344 457.714844 L 610.976562 457.714844 L 614.765625 447.171875 L 618.558594 436.625 L 657.453125 436.625 L 660.945312 447.144531 C 662.867188 452.929688 665.078125 457.933594 665.859375 458.261719 C 666.640625 458.585938 672.128906 458.363281 678.050781 457.757812 L 688.824219 456.660156 L 670.699219 404.46875 L 652.578125 352.277344 L 638.316406 352.277344 C 630.472656 352.277344 624.050781 352.511719 624.050781 352.804688 M 788.535156 361.765625 L 788.535156 371.253906 L 820.164062 371.253906 L 820.164062 457.308594 L 830.886719 458.035156 C 836.78125 458.441406 842 458.371094 842.484375 457.890625 C 842.96875 457.40625 843.363281 437.71875 843.363281 414.132812 L 843.363281 371.253906 L 870.773438 371.253906 L 870.773438 352.277344 L 788.535156 352.277344 Z M 900.832031 355.96875 C 896.921875 365.980469 864.917969 456.707031 865.191406 457.003906 C 865.363281 457.195312 870.609375 457.621094 876.851562 457.949219 L 888.199219 458.550781 L 892.3125 447.511719 L 896.433594 436.472656 L 915.535156 437.078125 L 934.632812 437.679688 L 938.632812 448.226562 L 942.632812 458.769531 L 953.246094 458.441406 C 959.085938 458.261719 964.246094 457.730469 964.714844 457.261719 C 965.1875 456.792969 957.523438 433.320312 947.695312 405.097656 C 937.863281 376.878906 929.820312 353.445312 929.820312 353.03125 C 929.820312 352.617188 923.621094 352.277344 916.046875 352.277344 C 904.882812 352.277344 902 352.976562 900.832031 355.96875 M 975.054688 354.953125 C 974.488281 356.425781 974.28125 380.183594 974.589844 407.742188 L 975.160156 457.851562 L 1007.316406 458.503906 L 1039.476562 459.152344 L 1039.476562 436.625 L 999.410156 436.625 L 999.410156 352.277344 L 987.746094 352.277344 C 980.261719 352.277344 975.714844 353.234375 975.054688 354.953125 M 520.722656 385.777344 L 520.722656 400.777344 L 535.082031 400.777344 C 552.699219 400.777344 557.414062 397.929688 557.414062 387.289062 C 557.414062 375.871094 552.828125 372.59375 535.476562 371.613281 L 520.722656 370.777344 Z M 631.027344 397.613281 L 624.425781 417.648438 L 638.171875 417.648438 C 648.28125 417.648438 651.660156 416.949219 650.945312 415.011719 C 650.410156 413.5625 647.386719 404.546875 644.222656 394.980469 C 641.058594 385.410156 638.277344 377.582031 638.046875 377.582031 C 637.8125 377.582031 634.65625 386.597656 631.027344 397.613281 M 909.734375 394.726562 C 906.523438 404.433594 903.460938 413.5625 902.925781 415.011719 C 902.214844 416.9375 905.421875 417.648438 914.832031 417.648438 C 921.917969 417.648438 927.699219 416.9375 927.6875 416.066406 C 927.671875 415.195312 924.941406 406.066406 921.617188 395.78125 L 915.574219 377.074219 Z M 461.679688 412.375 L 461.679688 423.972656 L 482.765625 423.972656 L 482.765625 400.777344 L 461.679688 400.777344 Z M 461.679688 412.375 " fill-opacity="1" fill-rule="evenodd"/></g></svg>